<?xml version="1.0" encoding="utf-8"?>
<!-- Generator: Adobe Illustrator 27.9.0, SVG Export Plug-In . SVG Version: 6.00 Build 0)  -->
<svg version="1.1" id="Layer_1" xmlns="http://www.w3.org/2000/svg" xmlns:xlink="http://www.w3.org/1999/xlink" x="0px" y="0px"
	 viewBox="0 0 360.4 77.2" style="enable-background:new 0 0 360.4 77.2;" xml:space="preserve">
<style type="text/css">
	.st0{fill:#FFFFFF;}
	.st1{fill:#003964;}
	.st2{fill:#ED1A3B;}
	.st3{fill:none;stroke:#00AEEF;stroke-width:0.25;stroke-miterlimit:10;stroke-dasharray:1.352,1.803;}
	.st4{fill:none;stroke:#00AEEF;stroke-width:0.25;stroke-miterlimit:10;stroke-dasharray:1.5,2;}
	.st5{fill:#5A5857;}
</style>
<g>
	<path class="st0" d="M65.9,40.1c0,16.6-13.5,30-30.1,30c-16.6,0-30-13.5-30-30c0-16.6,13.5-30,30-30C52.5,10,65.9,23.5,65.9,40.1"
		/>
	<path class="st1" d="M50,38c-4.8-3.2-10.9-1.9-14.1,3c-2.7,4.1-6.7,4.6-8.3,4.6c-5.1,0-8.6-3.6-9.6-7.3h0c0,0,0-0.1,0-0.1
		c0,0,0-0.1,0-0.1c-0.4-1.6-0.5-2.3-0.5-3.9c0-8.9,9.1-18.8,22.3-18.8c13.5,0,21.2,10.2,23.1,15.9c0-0.1-0.1-0.2-0.1-0.3
		c-3.8-11.1-14.4-19.1-26.8-19.1c-15.7,0-28.3,12.7-28.3,28.3c0,14,10.1,26,24.1,26c11.2,0,18.7-6.3,22.1-14.9
		C55.6,46.4,54.3,40.9,50,38"/>
	<path class="st2" d="M63,31.7c-1.7-5.6-9.4-16.5-23.3-16.5c-13.1,0-22.3,9.9-22.3,18.8c0,1.7,0.1,2.4,0.5,3.9
		c-0.2-0.7-0.3-1.4-0.3-2c0-9.3,9.3-15.7,18.8-15.7c12.9,0,23.4,10.5,23.4,23.4c0,10.1-5.8,18.9-14.3,23.1l0,0
		c10.9-3.9,18.7-14.4,18.7-26.7C64.2,37.2,63.8,34.6,63,31.7"/>
	<line class="st3" x1="35.9" y1="68.4" x2="35.9" y2="11.7"/>
	<line class="st3" x1="7.5" y1="40.1" x2="64.2" y2="40.1"/>
	<path class="st4" d="M64.2,40.1c0,15.7-12.7,28.3-28.3,28.3c-15.7,0-28.3-12.7-28.3-28.3s12.7-28.3,28.3-28.3
		C51.5,11.7,64.2,24.4,64.2,40.1z"/>
	<g>
		<g>
			<g>
				<path class="st0" d="M65.8,39.8c0,16.6-13.5,30-30,30c-16.6,0-30-13.5-30-30c0-16.6,13.5-30,30-30C52.4,9.7,65.8,23.2,65.8,39.8
					"/>
				<path class="st1" d="M49.9,37.7c-4.8-3.2-10.9-1.9-14.1,3c-2.7,4.1-6.7,4.6-8.3,4.6c-5.1,0-8.6-3.6-9.6-7.3h0c0,0,0-0.1,0-0.1
					c0,0,0-0.1,0-0.1c-0.4-1.5-0.5-2.3-0.5-3.9c0-8.9,9.1-18.8,22.3-18.8C53,15,60.7,25.2,62.7,30.9c0-0.1-0.1-0.2-0.1-0.3
					c-3.8-11.1-14.4-19.1-26.8-19.1c-15.7,0-28.3,12.7-28.3,28.3c0,14,10.1,26,24.1,26c11.2,0,18.7-6.3,22.1-14.9
					C55.5,46.2,54.2,40.6,49.9,37.7"/>
				<path class="st2" d="M62.9,31.5C61.2,25.9,53.5,15,39.5,15c-13.1,0-22.3,9.9-22.3,18.8c0,1.7,0.1,2.4,0.5,3.9
					c-0.2-0.7-0.3-1.4-0.3-2c0-9.3,9.3-15.7,18.8-15.7c12.9,0,23.4,10.5,23.4,23.4c0,10.1-5.8,18.9-14.3,23.1l0,0
					c10.9-3.9,18.7-14.4,18.7-26.7C64.1,36.9,63.7,34.3,62.9,31.5"/>
			</g>
		</g>
		<g>
			<path class="st5" d="M83.7,28.5v-2.3h-6.2v-1.7h14.4v1.7h-6.2v2.3h5.1V34h-1.9v-3.8H78.5v-1.7H83.7z M90.7,18.6v4.7h-1.9v-3H78.6
				v-1.7H90.7z"/>
			<path class="st5" d="M102.9,26.7h-8.5v-4.8h6.3v-1.6h-6.3v-1.7h8.3v4.8h-6.4v1.6h6.5V26.7z M95.4,27.5h1.9v1.3h8.5v-1.3h1.9v6.1
				H95.4V27.5z M105.7,30.4h-8.5V32h8.5V30.4z M105.7,18.3h1.9V27h-1.9V18.3z"/>
			<path class="st5" d="M111.5,23.7v-5.5h1.9V22h10.3v1.7h-5.3v1.5h6.2v1.7h-14.4v-1.7h6.2v-1.5H111.5z M121.5,31
				c0,0.5-0.1,1-0.3,1.4c-0.2,0.4-0.5,0.8-0.9,1.2c-0.3,0.3-0.8,0.6-1.2,0.8c-0.5,0.2-1,0.3-1.5,0.3c-0.5,0-1-0.1-1.5-0.3
				c-0.5-0.2-0.9-0.5-1.2-0.8c-0.4-0.3-0.6-0.7-0.9-1.2c-0.2-0.4-0.3-0.9-0.3-1.4c0-0.5,0.1-1,0.3-1.4c0.2-0.4,0.5-0.8,0.9-1.2
				c0.3-0.3,0.8-0.6,1.2-0.8c0.5-0.2,1-0.3,1.5-0.3c0.5,0,1,0.1,1.5,0.3c0.5,0.2,0.9,0.5,1.2,0.8c0.4,0.3,0.6,0.7,0.9,1.2
				C121.4,30,121.5,30.5,121.5,31z M119.5,31c0-0.5-0.2-1-0.6-1.4c-0.4-0.4-0.9-0.6-1.4-0.6c-0.5,0-1,0.2-1.4,0.6
				c-0.4,0.4-0.6,0.9-0.6,1.4c0,0.5,0.2,1,0.6,1.4c0.4,0.4,0.9,0.6,1.4,0.6c0.5,0,1-0.2,1.4-0.6C119.3,32,119.5,31.5,119.5,31z"/>
			<path class="st5" d="M131,18.2l4.8,8l-1.6,1l-3.2-5.6l-3.2,5.7l-1.6-1L131,18.2z M129.3,28.4v3.5h10.5v1.7h-12.5v-5.2H129.3z
				 M139.4,28.3h-1.9v-10h1.9V22h2.2v1.9h-2.2V28.3z"/>
			<path class="st5" d="M149.4,27.2v-1.1h-6.2v-1.6h14.4v1.6h-6.2v1.1h5.1v4h-10.2v1h10.4v1.6h-12.3v-4.1h10.2v-0.9h-10.2v-1.5
				H149.4z M144.3,18.5h12.1v5h-12.1V18.5z M154.5,20h-8.2v1.8h8.2V20z"/>
			<path class="st5" d="M165.8,28.4v-1.3h-6.2v-1.7H174v1.7h-6.2v1.3h5.1v5.2h-12.1v-5.2H165.8z M160.5,18.5H173v1.7h-2.1v2.4h2.1
				v1.7h-12.5v-1.7h2.1v-2.4h-2.1V18.5z M170.9,30.1h-8.2V32h8.2V30.1z M169,20.1h-4.5v2.4h4.5V20.1z"/>
			<path class="st5" d="M175.9,20.4v-1.7h9v1.7h-3.8l4,4l-1.3,1.2l-3.3-3.5l-3.3,3.6l-1.3-1.2l3.9-4.2H175.9z M177.4,26.4h12.3v4.3
				h-10.4V32h10.5v1.6h-12.5v-4.4h10.4V28h-10.4V26.4z M187.8,18.3h1.9v7.4h-1.9V18.3z"/>
			<path class="st5" d="M202.3,25.9v1.7h-10.2v-1.7h3.2v-3.5h1.9v3.5H202.3z M199.5,24.5v-4.2h-6.7v-1.7h8.6v5.9H199.5z M193.3,33.7
				V29h1.9v3h10.5v1.7H193.3z M205.5,28.6h-1.9V18.3h1.9v4.2h2v1.8h-2V28.6z"/>
			<path class="st5" d="M217.7,31.8h-8.4v-7.2h6.2v-3.7h-6.2v-1.7h8.2v7.1h-6.2v3.8h6.4V31.8z M220.6,18.3h1.9v15.7h-1.9V18.3z"/>
			<path class="st5" d="M235.6,27.7h-4.2v2.4h-1.9v-2.4h-4.3V26h10.4V27.7z M226.2,33.7v-4.5h1.9V32H239v1.7H226.2z M234.2,21.7
				c0,0.5-0.1,1-0.3,1.4c-0.2,0.4-0.5,0.8-0.8,1.2c-0.4,0.3-0.8,0.6-1.3,0.8c-0.5,0.2-1,0.3-1.5,0.3c-0.5,0-1-0.1-1.5-0.3
				c-0.5-0.2-0.9-0.5-1.3-0.8c-0.3-0.3-0.6-0.7-0.8-1.2c-0.2-0.4-0.3-0.9-0.3-1.4c0-0.5,0.1-1,0.3-1.4c0.2-0.4,0.5-0.8,0.8-1.2
				c0.4-0.3,0.8-0.6,1.3-0.8c0.5-0.2,1-0.3,1.5-0.3c0.5,0,1,0.1,1.5,0.3c0.5,0.2,0.9,0.5,1.3,0.8c0.3,0.3,0.6,0.7,0.8,1.2
				C234.1,20.7,234.2,21.2,234.2,21.7z M232.3,21.7c0-0.6-0.2-1-0.6-1.4c-0.4-0.4-0.9-0.6-1.4-0.6c-0.6,0-1,0.2-1.4,0.6
				c-0.4,0.4-0.6,0.9-0.6,1.4c0,0.6,0.2,1,0.6,1.4c0.4,0.4,0.9,0.6,1.4,0.6c0.6,0,1-0.2,1.4-0.6C232.1,22.7,232.3,22.3,232.3,21.7z
				 M236.8,18.3h1.9v12h-1.9v-5.8h-2.2v-1.7h2.2V18.3z"/>
		</g>
	</g>
	<g>
		<path class="st5" d="M80.4,48v-7.3H83v5.1h13.8V48h-7v2.1H98v2.2H78.8v-2.2h8.3V48H80.4z M93.7,57.8c0,0.7-0.1,1.3-0.4,1.9
			s-0.7,1.1-1.1,1.5c-0.5,0.4-1,0.8-1.7,1c-0.6,0.3-1.3,0.4-2,0.4c-0.7,0-1.4-0.1-2-0.4c-0.6-0.3-1.2-0.6-1.7-1
			c-0.5-0.4-0.9-1-1.1-1.5c-0.3-0.6-0.4-1.2-0.4-1.9c0-0.7,0.1-1.3,0.4-1.9c0.3-0.6,0.7-1.1,1.1-1.5c0.5-0.4,1-0.8,1.7-1
			c0.6-0.3,1.3-0.4,2-0.4c0.7,0,1.4,0.1,2,0.4c0.6,0.3,1.2,0.6,1.7,1c0.5,0.4,0.9,1,1.1,1.5C93.6,56.5,93.7,57.1,93.7,57.8z
			 M91.1,57.8c0-0.7-0.3-1.3-0.8-1.9c-0.5-0.5-1.2-0.8-1.9-0.8c-0.7,0-1.3,0.3-1.9,0.8c-0.5,0.5-0.8,1.1-0.8,1.9
			c0,0.7,0.3,1.3,0.8,1.9c0.5,0.5,1.2,0.8,1.9,0.8c0.7,0,1.3-0.3,1.9-0.8C90.9,59.1,91.1,58.5,91.1,57.8z"/>
		<path class="st5" d="M107,40.7l6.6,10.1l-2.1,1.4l-4.5-6.9l-4.4,7.1l-2.2-1.4L107,40.7z M102.3,53.8H119v7.7h-2.6v-5.4h-14.1V53.8
			z M116.4,40.8h2.6v11.7h-2.6V40.8z"/>
		<path class="st5" d="M130.9,52.7v-1.4h-8.3v-2.1h19.2v2.1h-8.3v1.4h6.8V58h-13.6v1.3h13.8v2.1h-16.4v-5.4h13.6v-1.2h-13.6v-2.1
			H130.9z M124.1,41.1h16.1v6.6h-16.1V41.1z M137.7,43.2h-11v2.4h11V43.2z"/>
		<path class="st5" d="M160,54.4v-1.7h-8.3v-2.3h19.2v2.3h-8.3v1.7h6.8v7h-16.1v-7H160z M153,41.1h16.6v2.2h-2.8v3.2h2.8v2.2H153
			v-2.2h2.8v-3.2H153V41.1z M166.8,56.6h-11v2.5h11V56.6z M164.3,43.3h-6v3.2h6V43.3z"/>
		<path class="st5" d="M173.5,43.6v-2.2h12v2.2h-5.1l5.3,5.4l-1.7,1.6l-4.4-4.6l-4.3,4.8l-1.8-1.6l5.3-5.5H173.5z M175.5,51.7h16.4
			v5.7h-13.8v1.8h14.1v2.1h-16.7v-5.8h13.8v-1.7h-13.8V51.7z M189.3,40.8h2.6v9.9h-2.6V40.8z"/>
		<path class="st5" d="M206,51.4h-2.6v-7.7h-7.5v-2.3H206V51.4z M197.4,52.9h16.4v8.4h-16.4V52.9z M211.2,55.1H200v3.9h11.2V55.1z
			 M211.2,40.8h2.6v11.1h-2.6v-4.5h-3.4V45h3.4V40.8z"/>
		<path class="st5" d="M217.3,43.6v-2.2h12v2.2h-5.1l5.3,6.5l-1.8,1.5l-4.3-5.3l-4.2,5.7l-1.9-1.5l5.3-6.8H217.3z M233.9,57.3
			c0,0.7-0.1,1.4-0.4,2c-0.3,0.6-0.7,1.2-1.2,1.6c-0.5,0.5-1.1,0.8-1.7,1.1c-0.7,0.3-1.4,0.4-2.1,0.4c-0.7,0-1.4-0.1-2.1-0.4
			c-0.7-0.3-1.3-0.6-1.8-1.1c-0.5-0.5-0.9-1-1.2-1.6c-0.3-0.6-0.4-1.3-0.4-2s0.1-1.4,0.4-2s0.7-1.2,1.2-1.6c0.5-0.5,1.1-0.8,1.8-1.1
			c0.7-0.3,1.4-0.4,2.1-0.4c0.7,0,1.4,0.1,2.1,0.4c0.7,0.3,1.2,0.6,1.7,1.1c0.5,0.5,0.9,1,1.2,1.6C233.8,55.9,233.9,56.6,233.9,57.3
			z M231.4,57.2c0-0.8-0.3-1.5-0.9-2c-0.6-0.6-1.3-0.9-2-0.9s-1.5,0.3-2,0.9c-0.6,0.6-0.9,1.2-0.9,2c0,0.8,0.3,1.5,0.9,2
			c0.6,0.6,1.2,0.8,2,0.8s1.5-0.3,2-0.8C231.1,58.7,231.4,58,231.4,57.2z M233.1,51.9v-4.5h-3.9v-2.2h3.9v-4.3h2.6v11.1H233.1z"/>
		<path class="st5" d="M248,49.5V41h16.1v2.1h-13.5v1.1H264v2h-13.4v1.2h13.6v2.1h-6.8v1.3h8.3V53h-19.2v-2.1h8.3v-1.3H248z
			 M261.2,58c0,0.6-0.1,1.2-0.4,1.8c-0.3,0.6-0.6,1-1.1,1.5c-0.5,0.4-1,0.7-1.6,1c-0.6,0.2-1.3,0.4-2,0.4c-0.7,0-1.4-0.1-2-0.4
			c-0.6-0.2-1.2-0.6-1.6-1c-0.5-0.4-0.8-0.9-1.1-1.5c-0.3-0.6-0.4-1.1-0.4-1.8c0-0.6,0.1-1.2,0.4-1.8c0.3-0.6,0.6-1,1.1-1.5
			c0.5-0.4,1-0.7,1.6-1c0.6-0.2,1.3-0.4,2-0.4c0.7,0,1.4,0.1,2,0.4c0.6,0.2,1.2,0.6,1.6,1c0.5,0.4,0.8,0.9,1.1,1.5
			C261,56.8,261.2,57.4,261.2,58z M258.6,58c0-0.7-0.3-1.3-0.8-1.8c-0.5-0.5-1.1-0.7-1.8-0.7c-0.7,0-1.3,0.2-1.8,0.7
			c-0.5,0.5-0.8,1.1-0.8,1.8s0.3,1.3,0.8,1.8c0.5,0.5,1.1,0.7,1.8,0.7c0.7,0,1.3-0.2,1.8-0.7C258.3,59.3,258.6,58.7,258.6,58z"/>
		<path class="st5" d="M280.1,42.1v2.2H268v-2.2h4.8v-1.8h2.8v1.8H280.1z M269.2,53.7h2.5v1.6h11v-1.6h2.5v7.6h-16.1V53.7z
			 M278.9,49.2c0,0.6-0.1,1.2-0.4,1.7c-0.3,0.5-0.6,1-1,1.4c-0.4,0.4-0.9,0.7-1.5,0.9c-0.6,0.2-1.2,0.3-1.8,0.3s-1.3-0.1-1.9-0.3
			c-0.6-0.2-1.1-0.5-1.5-0.9c-0.4-0.4-0.8-0.9-1-1.4c-0.3-0.5-0.4-1.1-0.4-1.7c0-0.6,0.1-1.2,0.4-1.7s0.6-1,1-1.4
			c0.4-0.4,0.9-0.7,1.5-0.9c0.6-0.2,1.2-0.3,1.9-0.3s1.3,0.1,1.8,0.3c0.6,0.2,1.1,0.5,1.5,0.9c0.4,0.4,0.8,0.9,1,1.4
			S278.9,48.6,278.9,49.2z M282.7,57.3h-11v2h11V57.3z M276.4,49.2c0-0.6-0.2-1.2-0.7-1.6c-0.4-0.4-1-0.7-1.6-0.7s-1.2,0.2-1.6,0.7
			c-0.4,0.4-0.7,1-0.7,1.6s0.2,1.2,0.7,1.6c0.4,0.4,1,0.7,1.6,0.7s1.2-0.2,1.6-0.7C276.2,50.3,276.4,49.8,276.4,49.2z M285.3,52.9
			h-2.6V40.8h2.6v4.7h3V48h-3V52.9z"/>
		<path class="st5" d="M296.6,40.9l6.8,16.9l-2.3,1l-4.5-11.5L292.1,59l-2.4-1L296.6,40.9z M305.9,40.8h2.6v20.9h-2.6V40.8z"/>
		<path class="st5" d="M331.3,57.9v2.3h-19.2v-2.3H331.3z M321.7,45.2l-7,8.9l-2-1.5l9-11.5l9,11.5l-2,1.5L321.7,45.2z"/>
		<path class="st5" d="M343.8,50v2.1h-9.4V41.4h9.2v2.2h-6.7v2.1h5.9v2.1h-5.9V50H343.8z M335.8,53.5h16.7v7.8h-16.7V53.5z
			 M350,55.7h-11.6v3.3H350V55.7z M346.1,40.8h2.4v11.5h-2.4V48h-2.1v-2.3h2.1V40.8z M350.1,40.8h2.5v11.7h-2.5V40.8z"/>
	</g>
</g>
</svg>
